<svg xmlns="http://www.w3.org/2000/svg" viewBox="0 0 100 100" width="100" height="100">
  <circle cx="50" cy="50" r="46" fill="#ffffff" stroke="#E8C98A" stroke-width="2"/>
  <path d="M30,25 C30,22 35,20 50,23 C65,20 70,22 70,25 L70,75 C70,72 65,70 50,73 C35,70 30,72 30,75 Z" fill="#7B1D3A" stroke="#E8C98A" stroke-width="1.5"/>
  <path d="M50,23 L50,73" fill="none" stroke="#E8C98A" stroke-width="1.5"/>
  <path d="M35,32 H45 M35,42 H45 M35,52 H45 M35,62 H45 M55,32 H65 M55,42 H65 M55,52 H65 M55,62 H65" stroke="#E8C98A" stroke-width="1" stroke-linecap="round"/>
</svg>
